<?xml version="1.0"?>
<svg xmlns="http://www.w3.org/2000/svg" width="142" height="54" viewBox="0 0 142 54" fill="none">
<circle cx="23.5238" cy="25.5238" r="17.1905" stroke="#4A885D" stroke-width="1.80952"/>
<line x1="1.2381" y1="26.0952" x2="45.8095" y2="26.0952" stroke="#4A885D" stroke-width="2.47619" stroke-linecap="round"/>
<path d="M22.619 49.0476L22.619 2" stroke="#4A885D" stroke-width="2.47619" stroke-linecap="round"/>
<path d="M73.741 39.3192H70.2743V14.0126H73.741V39.3192ZM61.261 26.8392C61.261 27.6019 60.9836 28.2606 60.429 28.8152C59.8974 29.3468 59.2503 29.6126 58.4876 29.6126H53.2876C52.525 29.6126 51.8663 29.3468 51.3116 28.8152C50.7801 28.2606 50.5143 27.6019 50.5143 26.8392V14.7059H61.261V20.4259H64.797V14.0126H68.1943V39.3192H64.797V23.7192H61.261V26.8392ZM57.7943 26.3192V17.9992H53.981V26.3192H57.7943ZM103.914 39.3192H100.448V14.0126H103.914V39.3192ZM95.2478 29.6126H85.1945C84.4318 29.6126 83.7732 29.3468 83.2185 28.8152C82.6869 28.2606 82.4212 27.6019 82.4212 26.8392V14.7059H94.9012V17.9992H85.8878V26.3192H95.2478V29.6126ZM128.888 23.8926H117.795V20.5992H128.888V17.9992H117.448V14.7059H132.355V27.1859H128.888V23.8926ZM139.288 32.9059H110.861V29.6126H121.955V25.7992H125.421V29.6126H139.288V32.9059ZM132.355 44.5192C132.355 45.2819 132.077 45.929 131.523 46.4606C130.991 47.0152 130.344 47.2926 129.581 47.2926H120.568C119.805 47.2926 119.147 47.0152 118.592 46.4606C118.06 45.929 117.795 45.2819 117.795 44.5192V35.5059H132.355V44.5192ZM128.888 43.9992V38.7992H121.261V43.9992H128.888Z" fill="#4A885D"/>
</svg>
